<mxfile host="app.diagrams.net" modified="2022-09-26T10:56:19.331Z" agent="5.0 (X11)" etag="dRfALq8ZEv9Oeh37nZNE" version="18.0.8" type="github">
  <diagram id="obGRaE8XgYMWURcT9A6B" name="Page-1">
    <mxGraphModel dx="1398" dy="913" grid="1" gridSize="10" guides="1" tooltips="1" connect="1" arrows="1" fold="1" page="1" pageScale="1" pageWidth="827" pageHeight="1169" math="0" shadow="0">
      <root>
        <mxCell id="0" />
        <mxCell id="1" parent="0" />
        <mxCell id="KMllPCVLpyvuSk6OKacK-1" value="&lt;font style=&quot;font-size: 14px;&quot;&gt;&lt;b&gt;Stress&lt;/b&gt;&lt;/font&gt;" style="rounded=1;whiteSpace=wrap;html=1;" vertex="1" parent="1">
          <mxGeometry x="389.5" y="250" width="70" height="40" as="geometry" />
        </mxCell>
        <mxCell id="KMllPCVLpyvuSk6OKacK-2" value="Stimulations" style="rounded=1;whiteSpace=wrap;html=1;fontSize=14;" vertex="1" parent="1">
          <mxGeometry x="110" width="110" height="30" as="geometry" />
        </mxCell>
        <mxCell id="KMllPCVLpyvuSk6OKacK-3" value="&lt;div&gt;&lt;u&gt;Extérieures&lt;/u&gt;&lt;/div&gt;&lt;div&gt;&lt;font style=&quot;font-size: 12px;&quot;&gt;Froid&lt;/font&gt;&lt;/div&gt;&lt;div&gt;&lt;font style=&quot;font-size: 12px;&quot;&gt;Chaleur&lt;/font&gt;&lt;/div&gt;&lt;div&gt;&lt;font style=&quot;font-size: 12px;&quot;&gt;Soleil&lt;/font&gt;&lt;/div&gt;&lt;div&gt;&lt;font style=&quot;font-size: 12px;&quot;&gt;Intempéries&lt;/font&gt;&lt;/div&gt;&lt;div&gt;&lt;font style=&quot;font-size: 12px;&quot;&gt;...&lt;br&gt;&lt;/font&gt;&lt;/div&gt;" style="rounded=1;whiteSpace=wrap;html=1;fontSize=14;" vertex="1" parent="1">
          <mxGeometry x="30" y="50" width="120" height="130" as="geometry" />
        </mxCell>
        <mxCell id="KMllPCVLpyvuSk6OKacK-4" value="&lt;div&gt;&lt;u&gt;Intérieures&lt;/u&gt;&lt;/div&gt;&lt;div&gt;&lt;font style=&quot;font-size: 12px;&quot;&gt;Emotions (joie, tristesse, colère)&lt;br&gt;&lt;/font&gt;&lt;/div&gt;&lt;div&gt;&lt;font style=&quot;font-size: 12px;&quot;&gt;Angoisses&lt;br&gt;&lt;/font&gt;&lt;/div&gt;&lt;div&gt;&lt;font style=&quot;font-size: 12px;&quot;&gt;Culpabilité&lt;/font&gt;&lt;/div&gt;&lt;div&gt;&lt;font style=&quot;font-size: 12px;&quot;&gt;...&lt;/font&gt;&lt;/div&gt;" style="rounded=1;whiteSpace=wrap;html=1;fontSize=14;" vertex="1" parent="1">
          <mxGeometry x="180" y="50" width="120" height="130" as="geometry" />
        </mxCell>
        <mxCell id="KMllPCVLpyvuSk6OKacK-5" value="" style="endArrow=classic;html=1;rounded=0;fontSize=12;exitX=0.25;exitY=1;exitDx=0;exitDy=0;" edge="1" parent="1" source="KMllPCVLpyvuSk6OKacK-2" target="KMllPCVLpyvuSk6OKacK-3">
          <mxGeometry width="50" height="50" relative="1" as="geometry">
            <mxPoint x="390" y="500" as="sourcePoint" />
            <mxPoint x="440" y="450" as="targetPoint" />
          </mxGeometry>
        </mxCell>
        <mxCell id="KMllPCVLpyvuSk6OKacK-6" value="" style="endArrow=classic;html=1;rounded=0;fontSize=12;exitX=0.75;exitY=1;exitDx=0;exitDy=0;" edge="1" parent="1" source="KMllPCVLpyvuSk6OKacK-2" target="KMllPCVLpyvuSk6OKacK-4">
          <mxGeometry width="50" height="50" relative="1" as="geometry">
            <mxPoint x="390" y="500" as="sourcePoint" />
            <mxPoint x="440" y="450" as="targetPoint" />
          </mxGeometry>
        </mxCell>
        <mxCell id="KMllPCVLpyvuSk6OKacK-7" value="Evénèments" style="rounded=1;whiteSpace=wrap;html=1;fontSize=14;" vertex="1" parent="1">
          <mxGeometry x="600" width="110" height="30" as="geometry" />
        </mxCell>
        <mxCell id="KMllPCVLpyvuSk6OKacK-8" value="&lt;div&gt;&lt;u&gt;Heureux&lt;/u&gt;&lt;/div&gt;&lt;font style=&quot;font-size: 12px;&quot;&gt;Naissance&lt;/font&gt;&lt;br&gt;&lt;div&gt;&lt;font style=&quot;font-size: 12px;&quot;&gt;Mariage&lt;/font&gt;&lt;/div&gt;&lt;div&gt;&lt;font style=&quot;font-size: 12px;&quot;&gt;Succès professionnels&lt;/font&gt;&lt;/div&gt;&lt;div&gt;&lt;font style=&quot;font-size: 12px;&quot;&gt;...&lt;br&gt;&lt;/font&gt;&lt;/div&gt;" style="rounded=1;whiteSpace=wrap;html=1;fontSize=14;" vertex="1" parent="1">
          <mxGeometry x="510" y="50" width="130" height="130" as="geometry" />
        </mxCell>
        <mxCell id="KMllPCVLpyvuSk6OKacK-9" value="&lt;div&gt;&lt;u&gt;Malheureux&lt;/u&gt;&lt;/div&gt;&lt;div&gt;&lt;font style=&quot;font-size: 12px;&quot;&gt;Décès&lt;/font&gt;&lt;/div&gt;&lt;div&gt;&lt;font style=&quot;font-size: 12px;&quot;&gt;Séparation&lt;/font&gt;&lt;/div&gt;&lt;div&gt;&lt;font style=&quot;font-size: 12px;&quot;&gt;Echecs professionnels&lt;br&gt;&lt;/font&gt;&lt;/div&gt;&lt;div&gt;&lt;font style=&quot;font-size: 12px;&quot;&gt;...&lt;/font&gt;&lt;/div&gt;" style="rounded=1;whiteSpace=wrap;html=1;fontSize=14;" vertex="1" parent="1">
          <mxGeometry x="670" y="50" width="130" height="130" as="geometry" />
        </mxCell>
        <mxCell id="KMllPCVLpyvuSk6OKacK-10" value="" style="endArrow=classic;html=1;rounded=0;fontSize=12;exitX=0.25;exitY=1;exitDx=0;exitDy=0;" edge="1" parent="1" source="KMllPCVLpyvuSk6OKacK-7" target="KMllPCVLpyvuSk6OKacK-8">
          <mxGeometry width="50" height="50" relative="1" as="geometry">
            <mxPoint x="880" y="500" as="sourcePoint" />
            <mxPoint x="930" y="450" as="targetPoint" />
          </mxGeometry>
        </mxCell>
        <mxCell id="KMllPCVLpyvuSk6OKacK-11" value="" style="endArrow=classic;html=1;rounded=0;fontSize=12;exitX=0.75;exitY=1;exitDx=0;exitDy=0;" edge="1" parent="1" source="KMllPCVLpyvuSk6OKacK-7" target="KMllPCVLpyvuSk6OKacK-9">
          <mxGeometry width="50" height="50" relative="1" as="geometry">
            <mxPoint x="880" y="500" as="sourcePoint" />
            <mxPoint x="930" y="450" as="targetPoint" />
          </mxGeometry>
        </mxCell>
        <mxCell id="KMllPCVLpyvuSk6OKacK-12" value="" style="shape=curlyBracket;whiteSpace=wrap;html=1;rounded=1;flipH=1;fontSize=12;rotation=90;" vertex="1" parent="1">
          <mxGeometry x="415" y="-120" width="20" height="640" as="geometry" />
        </mxCell>
        <mxCell id="KMllPCVLpyvuSk6OKacK-15" value="" style="endArrow=classic;html=1;rounded=0;fontSize=12;entryX=0.5;entryY=0;entryDx=0;entryDy=0;" edge="1" parent="1" source="KMllPCVLpyvuSk6OKacK-12" target="KMllPCVLpyvuSk6OKacK-1">
          <mxGeometry width="50" height="50" relative="1" as="geometry">
            <mxPoint x="625" y="210" as="sourcePoint" />
            <mxPoint x="450" y="260" as="targetPoint" />
          </mxGeometry>
        </mxCell>
        <mxCell id="KMllPCVLpyvuSk6OKacK-17" value="" style="endArrow=none;dashed=1;html=1;dashPattern=1 3;strokeWidth=2;rounded=0;fontSize=12;entryX=0;entryY=0.5;entryDx=0;entryDy=0;entryPerimeter=0;exitX=1;exitY=0.5;exitDx=0;exitDy=0;" edge="1" parent="1" source="KMllPCVLpyvuSk6OKacK-2">
          <mxGeometry width="50" height="50" relative="1" as="geometry">
            <mxPoint x="400" y="490" as="sourcePoint" />
            <mxPoint x="330" y="45" as="targetPoint" />
          </mxGeometry>
        </mxCell>
        <mxCell id="KMllPCVLpyvuSk6OKacK-18" value="" style="endArrow=none;dashed=1;html=1;dashPattern=1 3;strokeWidth=2;rounded=0;fontSize=12;entryX=0;entryY=0.5;entryDx=0;entryDy=0;exitX=1.031;exitY=0.58;exitDx=0;exitDy=0;exitPerimeter=0;" edge="1" parent="1" target="KMllPCVLpyvuSk6OKacK-7">
          <mxGeometry width="50" height="50" relative="1" as="geometry">
            <mxPoint x="474.3399999999999" y="50.60000000000002" as="sourcePoint" />
            <mxPoint x="450" y="440" as="targetPoint" />
          </mxGeometry>
        </mxCell>
        <mxCell id="KMllPCVLpyvuSk6OKacK-19" value="Hypothalamus" style="ellipse;whiteSpace=wrap;html=1;fontSize=12;" vertex="1" parent="1">
          <mxGeometry x="365" y="310" width="120" height="50" as="geometry" />
        </mxCell>
        <mxCell id="KMllPCVLpyvuSk6OKacK-21" value="" style="endArrow=classic;html=1;rounded=0;fontSize=12;exitX=0.5;exitY=1;exitDx=0;exitDy=0;entryX=0.5;entryY=0;entryDx=0;entryDy=0;" edge="1" parent="1" source="KMllPCVLpyvuSk6OKacK-1" target="KMllPCVLpyvuSk6OKacK-19">
          <mxGeometry width="50" height="50" relative="1" as="geometry">
            <mxPoint x="411" y="490" as="sourcePoint" />
            <mxPoint x="461" y="440" as="targetPoint" />
          </mxGeometry>
        </mxCell>
        <mxCell id="KMllPCVLpyvuSk6OKacK-22" value="rein gauche" style="ellipse;whiteSpace=wrap;html=1;fontSize=12;" vertex="1" parent="1">
          <mxGeometry x="201" y="380" width="100" height="30" as="geometry" />
        </mxCell>
        <mxCell id="KMllPCVLpyvuSk6OKacK-25" value="" style="shape=xor;whiteSpace=wrap;html=1;fontSize=12;rotation=-90;" vertex="1" parent="1">
          <mxGeometry x="241" y="334" width="20" height="80" as="geometry" />
        </mxCell>
        <mxCell id="KMllPCVLpyvuSk6OKacK-27" value="" style="endArrow=none;dashed=1;html=1;dashPattern=1 3;strokeWidth=2;rounded=0;fontSize=12;exitX=0.4;exitY=0.988;exitDx=0;exitDy=0;exitPerimeter=0;" edge="1" parent="1" source="KMllPCVLpyvuSk6OKacK-25" target="KMllPCVLpyvuSk6OKacK-32">
          <mxGeometry width="50" height="50" relative="1" as="geometry">
            <mxPoint x="281" y="380" as="sourcePoint" />
            <mxPoint x="365" y="392.3743016759777" as="targetPoint" />
          </mxGeometry>
        </mxCell>
        <mxCell id="KMllPCVLpyvuSk6OKacK-29" value="rein droit" style="ellipse;whiteSpace=wrap;html=1;fontSize=12;" vertex="1" parent="1">
          <mxGeometry x="556" y="380" width="100" height="30" as="geometry" />
        </mxCell>
        <mxCell id="KMllPCVLpyvuSk6OKacK-30" value="" style="shape=xor;whiteSpace=wrap;html=1;fontSize=12;rotation=-90;" vertex="1" parent="1">
          <mxGeometry x="596" y="335" width="20" height="80" as="geometry" />
        </mxCell>
        <mxCell id="KMllPCVLpyvuSk6OKacK-31" value="" style="endArrow=none;dashed=1;html=1;dashPattern=1 3;strokeWidth=2;rounded=0;fontSize=12;exitX=1;exitY=0.25;exitDx=0;exitDy=0;" edge="1" parent="1" source="KMllPCVLpyvuSk6OKacK-32" target="KMllPCVLpyvuSk6OKacK-30">
          <mxGeometry width="50" height="50" relative="1" as="geometry">
            <mxPoint x="495" y="392.61363636363626" as="sourcePoint" />
            <mxPoint x="601" y="370" as="targetPoint" />
          </mxGeometry>
        </mxCell>
        <mxCell id="KMllPCVLpyvuSk6OKacK-32" value="glandes surénales" style="text;html=1;strokeColor=none;fillColor=none;align=center;verticalAlign=middle;whiteSpace=wrap;rounded=0;fontSize=12;" vertex="1" parent="1">
          <mxGeometry x="399.5" y="380" width="60" height="30" as="geometry" />
        </mxCell>
        <mxCell id="KMllPCVLpyvuSk6OKacK-33" value="&lt;div&gt;&lt;br&gt;&lt;/div&gt;&lt;div&gt;&lt;br&gt;&lt;/div&gt;&lt;div&gt;Quelque soit l&#39;intensité&lt;/div&gt;&lt;div&gt;(faible ou forte)&lt;br&gt;&lt;/div&gt;" style="text;html=1;strokeColor=none;fillColor=none;align=center;verticalAlign=middle;whiteSpace=wrap;rounded=0;fontSize=12;" vertex="1" parent="1">
          <mxGeometry x="320" y="30" width="170" height="30" as="geometry" />
        </mxCell>
        <mxCell id="KMllPCVLpyvuSk6OKacK-34" value="" style="endArrow=classic;html=1;rounded=0;fontSize=12;" edge="1" parent="1">
          <mxGeometry width="50" height="50" relative="1" as="geometry">
            <mxPoint x="361" y="340" as="sourcePoint" />
            <mxPoint x="290" y="360" as="targetPoint" />
          </mxGeometry>
        </mxCell>
        <mxCell id="KMllPCVLpyvuSk6OKacK-35" value="" style="endArrow=classic;html=1;rounded=0;fontSize=12;exitX=0.975;exitY=0.66;exitDx=0;exitDy=0;exitPerimeter=0;" edge="1" parent="1" source="KMllPCVLpyvuSk6OKacK-19">
          <mxGeometry width="50" height="50" relative="1" as="geometry">
            <mxPoint x="411" y="490" as="sourcePoint" />
            <mxPoint x="590" y="360" as="targetPoint" />
          </mxGeometry>
        </mxCell>
        <mxCell id="KMllPCVLpyvuSk6OKacK-36" value="" style="endArrow=none;html=1;rounded=0;fontSize=12;exitX=1;exitY=0.5;exitDx=0;exitDy=0;exitPerimeter=0;" edge="1" parent="1" source="KMllPCVLpyvuSk6OKacK-25" target="KMllPCVLpyvuSk6OKacK-22">
          <mxGeometry width="50" height="50" relative="1" as="geometry">
            <mxPoint x="411" y="490" as="sourcePoint" />
            <mxPoint x="461" y="440" as="targetPoint" />
            <Array as="points">
              <mxPoint x="251" y="380" />
            </Array>
          </mxGeometry>
        </mxCell>
        <mxCell id="KMllPCVLpyvuSk6OKacK-37" value="" style="endArrow=none;html=1;rounded=0;fontSize=12;exitX=1;exitY=0.5;exitDx=0;exitDy=0;exitPerimeter=0;" edge="1" parent="1">
          <mxGeometry width="50" height="50" relative="1" as="geometry">
            <mxPoint x="608" y="366" as="sourcePoint" />
            <mxPoint x="608" y="366" as="targetPoint" />
            <Array as="points">
              <mxPoint x="608" y="382" />
            </Array>
          </mxGeometry>
        </mxCell>
        <mxCell id="KMllPCVLpyvuSk6OKacK-38" value="&lt;div&gt;Partie &lt;br&gt;&lt;/div&gt;&lt;div&gt;médulo-surénale&lt;/div&gt;&lt;div&gt;&lt;br&gt;&lt;/div&gt;" style="text;html=1;strokeColor=none;fillColor=none;align=center;verticalAlign=middle;whiteSpace=wrap;rounded=0;fontSize=12;" vertex="1" parent="1">
          <mxGeometry x="81" y="330" width="120" height="30" as="geometry" />
        </mxCell>
        <mxCell id="KMllPCVLpyvuSk6OKacK-39" value="" style="endArrow=none;dashed=1;html=1;dashPattern=1 3;strokeWidth=2;rounded=0;fontSize=12;exitX=0.5;exitY=0.375;exitDx=0;exitDy=0;exitPerimeter=0;" edge="1" parent="1" source="KMllPCVLpyvuSk6OKacK-25" target="KMllPCVLpyvuSk6OKacK-38">
          <mxGeometry width="50" height="50" relative="1" as="geometry">
            <mxPoint x="411" y="490" as="sourcePoint" />
            <mxPoint x="461" y="440" as="targetPoint" />
          </mxGeometry>
        </mxCell>
        <mxCell id="KMllPCVLpyvuSk6OKacK-40" value="&lt;div&gt;Partie &lt;br&gt;&lt;/div&gt;&lt;div&gt;cortico-surénale&lt;/div&gt;&lt;div&gt;&lt;br&gt;&lt;/div&gt;" style="text;html=1;strokeColor=none;fillColor=none;align=center;verticalAlign=middle;whiteSpace=wrap;rounded=0;fontSize=12;" vertex="1" parent="1">
          <mxGeometry x="662" y="328" width="120" height="30" as="geometry" />
        </mxCell>
        <mxCell id="KMllPCVLpyvuSk6OKacK-41" value="" style="endArrow=none;dashed=1;html=1;dashPattern=1 3;strokeWidth=2;rounded=0;fontSize=12;exitX=0.65;exitY=0.813;exitDx=0;exitDy=0;exitPerimeter=0;" edge="1" parent="1" target="KMllPCVLpyvuSk6OKacK-40" source="KMllPCVLpyvuSk6OKacK-30">
          <mxGeometry width="50" height="50" relative="1" as="geometry">
            <mxPoint x="822" y="372" as="sourcePoint" />
            <mxPoint x="1042" y="438" as="targetPoint" />
          </mxGeometry>
        </mxCell>
        <mxCell id="KMllPCVLpyvuSk6OKacK-42" value="" style="edgeStyle=segmentEdgeStyle;endArrow=classic;html=1;rounded=0;fontSize=12;exitX=0.7;exitY=0.1;exitDx=0;exitDy=0;exitPerimeter=0;" edge="1" parent="1" source="KMllPCVLpyvuSk6OKacK-25" target="KMllPCVLpyvuSk6OKacK-43">
          <mxGeometry width="50" height="50" relative="1" as="geometry">
            <mxPoint x="400" y="430" as="sourcePoint" />
            <mxPoint x="150" y="450" as="targetPoint" />
          </mxGeometry>
        </mxCell>
        <mxCell id="KMllPCVLpyvuSk6OKacK-43" value="secrète l&#39;adrénaline" style="ellipse;shape=doubleEllipse;whiteSpace=wrap;html=1;fontSize=12;" vertex="1" parent="1">
          <mxGeometry x="101" y="420" width="100" height="60" as="geometry" />
        </mxCell>
        <mxCell id="KMllPCVLpyvuSk6OKacK-44" value="&lt;div align=&quot;left&quot;&gt;&lt;u&gt;Augmentation&lt;/u&gt; &lt;br&gt;&lt;/div&gt;&lt;div align=&quot;left&quot;&gt;des spasmes des vaisseaux sanguins, artères, et veines,&lt;/div&gt;&lt;div align=&quot;left&quot;&gt;de l&#39;excitabilité des muscles,&lt;/div&gt;&lt;div align=&quot;left&quot;&gt;de la pression artérielle et du pouls&lt;/div&gt;&lt;div align=&quot;left&quot;&gt;du glucose sanguin dont 30 pourcents est utilisé par le cerveau&lt;br&gt;&lt;/div&gt;&lt;div align=&quot;left&quot;&gt;&lt;br&gt;&lt;/div&gt;" style="text;html=1;strokeColor=none;fillColor=none;align=left;verticalAlign=middle;whiteSpace=wrap;rounded=0;fontSize=12;" vertex="1" parent="1">
          <mxGeometry x="40" y="460" width="319" height="160" as="geometry" />
        </mxCell>
        <mxCell id="KMllPCVLpyvuSk6OKacK-45" value="" style="edgeStyle=segmentEdgeStyle;endArrow=classic;html=1;rounded=0;fontSize=12;" edge="1" parent="1" target="KMllPCVLpyvuSk6OKacK-46">
          <mxGeometry width="50" height="50" relative="1" as="geometry">
            <mxPoint x="630" y="370" as="sourcePoint" />
            <mxPoint x="685.5" y="460" as="targetPoint" />
          </mxGeometry>
        </mxCell>
        <mxCell id="KMllPCVLpyvuSk6OKacK-46" value="&lt;div&gt;secrète l&#39;aldostérone, &lt;br&gt;&lt;/div&gt;&lt;div&gt;la cortisone et &lt;br&gt;&lt;/div&gt;&lt;div&gt;le cortisol&lt;/div&gt;" style="ellipse;shape=doubleEllipse;whiteSpace=wrap;html=1;fontSize=12;" vertex="1" parent="1">
          <mxGeometry x="656" y="400" width="120" height="80" as="geometry" />
        </mxCell>
        <mxCell id="KMllPCVLpyvuSk6OKacK-47" value="&lt;div align=&quot;right&quot;&gt;&lt;u&gt;Augmentation&lt;/u&gt; &lt;br&gt;&lt;/div&gt;&lt;div align=&quot;right&quot;&gt;des spasmes des vaisseaux sanguins, artères, et veines,&lt;/div&gt;&lt;div align=&quot;right&quot;&gt;de l&#39;excitabilité des muscles,&lt;/div&gt;&lt;div align=&quot;right&quot;&gt;de la pression artérielle et du pouls&lt;/div&gt;&lt;div align=&quot;right&quot;&gt;du glucose sanguin dont 30 pourcents est utilisé par le cerveau&lt;br&gt;&lt;/div&gt;&lt;div align=&quot;right&quot;&gt;&lt;br&gt;&lt;/div&gt;" style="text;html=1;strokeColor=none;fillColor=none;align=right;verticalAlign=middle;whiteSpace=wrap;rounded=0;fontSize=12;" vertex="1" parent="1">
          <mxGeometry x="490" y="456" width="319" height="160" as="geometry" />
        </mxCell>
      </root>
    </mxGraphModel>
  </diagram>
</mxfile>
